<svg xmlns="http://www.w3.org/2000/svg" xmlns:xlink="http://www.w3.org/1999/xlink" viewBox="0 0 22.85 22.06"><defs><style>.cls-1{fill:url(#linear-gradient);}.cls-2{fill:#a61212;}</style><linearGradient id="linear-gradient" x1="6.1" y1="3.2" x2="18.17" y2="18.94" gradientUnits="userSpaceOnUse"><stop offset="0" stop-color="#ffd876"/><stop offset="0.54" stop-color="#fd9c2b"/><stop offset="1" stop-color="#e77710"/></linearGradient></defs><title>flower3@3x</title><g id="Layer_2" data-name="Layer 2"><g id="Layer_1-2" data-name="Layer 1"><path class="cls-1" d="M20.25,13.15l2.59-.51s0-.08,0-.13A4.64,4.64,0,0,0,19.05,8a4.61,4.61,0,0,0,.66-5.84l-2.78,1L17.86.48A4.6,4.6,0,0,0,11.67,2.6,4.62,4.62,0,0,0,7.52,0,4.49,4.49,0,0,0,5.45.5l.91,2.6-2.74-1a4.68,4.68,0,0,0-.74,2.51A4.63,4.63,0,0,0,4.24,7.92,4.62,4.62,0,0,0,0,12.51v0l3.08.61L.78,15.08a4.63,4.63,0,0,0,6.4,1.31A4.58,4.58,0,0,0,7,17.51,4.65,4.65,0,0,0,10.51,22l1-2.13,1,2.19a4.64,4.64,0,0,0,3.74-4.55,3.75,3.75,0,0,0-.09-.82,4.58,4.58,0,0,0,2,.46,4.64,4.64,0,0,0,4-2.34Z"/><path class="cls-2" d="M14.7,10.27a.5.5,0,0,0,.36-.61.51.51,0,0,0-.62-.36.49.49,0,0,0-.34.5l-.53.15A2.18,2.18,0,0,0,13,9l.37-.46a.46.46,0,0,0,.53-.11.5.5,0,1,0-.76-.65.48.48,0,0,0,0,.62l-.38.45a2.15,2.15,0,0,0-1.16-.45v-.6A.47.47,0,0,0,12,7.4a.5.5,0,0,0-.51-.5.49.49,0,0,0-.49.5.47.47,0,0,0,.37.45v.59a2.17,2.17,0,0,0-1,.34L10,8.29a.5.5,0,0,0,.07-.61.5.5,0,0,0-.83.57.5.5,0,0,0,.52.17l.36.51a2.19,2.19,0,0,0-.68.83l-.51-.19a.48.48,0,0,0-.3-.51.49.49,0,0,0-.64.3.5.5,0,0,0,.3.64.48.48,0,0,0,.54-.18l.55.2a2.13,2.13,0,0,0-.12.62,1.64,1.64,0,0,0,.09.44l-.53.14a.49.49,0,0,0-.56-.29.5.5,0,0,0,.25,1,.49.49,0,0,0,.33-.41l.56-.15a2.25,2.25,0,0,0,.56.91l-.32.39a.48.48,0,0,0-.6.09.5.5,0,1,0,.77.64.48.48,0,0,0,0-.54l.35-.43a2.21,2.21,0,0,0,1.17.44v.51a.47.47,0,0,0-.37.45.49.49,0,0,0,.49.5.5.5,0,0,0,.51-.5.47.47,0,0,0-.36-.44v-.52a2.16,2.16,0,0,0,1-.33l.31.44a.48.48,0,0,0,0,.57.51.51,0,0,0,.7.13.52.52,0,0,0,.13-.7.48.48,0,0,0-.56-.16l-.3-.43a2.26,2.26,0,0,0,.67-.83l.51.18a.48.48,0,0,0,.3.43.5.5,0,1,0,.33-.94.5.5,0,0,0-.59.25l-.49-.18a2.28,2.28,0,0,0,.13-.63,2.05,2.05,0,0,0-.09-.43l.58-.16A.46.46,0,0,0,14.7,10.27Z"/></g></g></svg>