<?xml version="1.0" encoding="utf-8"?>
<!-- Generator: Adobe Illustrator 22.0.0, SVG Export Plug-In . SVG Version: 6.00 Build 0)  -->
<svg version="1.1" xmlns="http://www.w3.org/2000/svg" xmlns:xlink="http://www.w3.org/1999/xlink" x="0px" y="0px"
	 viewBox="0 0 1236 1192" style="enable-background:new 0 0 1236 1192;" xml:space="preserve">
<style type="text/css">
	.st0{fill:#FDDAB5;}
	.st1{fill:#FFC28A;}
	.st2{fill:#FFFFFF;}
	.st3{fill:#382631;}
</style>
<g id="Together">
	<path class="st0" d="M798.6,614.8l144.3,144.3c28.4,28.4,26.8,76.6-3.6,107c-30.4,30.4-78.6,32-107,3.6L688,725.4l0.7,0.7
		l144.3,144.3c28.4,28.4,26.8,76.6-3.6,107l0,0c-21.1,21-50.6,28.3-76.2,21.4l-85.5,30.8L281.2,660.4l-38,59.1l-88.9-88.3
		c-122-122-122-321.7,0-443.7v0c122-122,321.7-122,443.7,0l39.1,39.9l105.2,107.2l164.7,167.8l144.3,144.3
		c28.4,28.4,26.8,76.6-3.6,107l0,0c-30.4,30.4-78.6,32-107,3.6L796.5,612.9"/>
	<path class="st1" d="M724.5,962.9L724.5,962.9c-30.5-30.5-80.1-30.5-110.6,0l-43.4,43.4c-28.4,28.4-26.8,76.6,3.6,107
		c30.4,30.4,78.6,32,107,3.6l43.4-43.4C755,1042.9,755,993.4,724.5,962.9z"/>
	<path class="st1" d="M613.7,852.4L613.7,852.4c-30.5-30.5-80.1-30.5-110.6,0l-1.1,1.1c30.5-30.5,30.5-80.1,0-110.6l0,0
		c-30.5-30.5-80.1-30.5-110.6,0l1.4-1.4c30.5-30.5,30.5-80.1,0-110.6l0,0c-30.5-30.5-80.1-30.5-110.6,0l-43.4,43.4
		c-28.4,28.4-26.8,76.6,3.6,107c30.4,30.4,78.6,32,107,3.6l-1.4,1.4c-28.4,28.4-26.8,76.6,3.6,107c30.4,30.4,78.6,32,107,3.6
		l1.1-1.1c-28.4,28.4-26.8,76.6,3.6,107c30.4,30.4,78.6,32,107,3.6l0.1-0.1l43.3-43.3C644.3,932.5,644.3,882.9,613.7,852.4z"/>
	<path class="st1" d="M729,320.9l-88.1,81.3c-28.4,28.4-75,28.4-103.4,0l0,0c-28.4-28.4-28.4-75,0-103.4l90.3-91.4l0,0l24.7-25.1
		c122-122,321.7-122,443.7,0l0,0c122,122,122,321.7,0,443.7l-30.6,37.2L729,320.9z"/>
	<polyline class="st2" points="657.2,934.6 777.2,814.6 725.5,762.3 627.9,860 	"/>
	<path class="st3" d="M640,173.6l-15.5,15.7l-16-16.7c-0.1-0.1-0.2-0.2-0.3-0.3C479.1,43.2,269,43.2,139.8,172.3
		c-0.2,0.2-0.4,0.4-0.6,0.6C10.7,302.1,10.9,511.8,139.6,640.6l63.2,65.1c-6.3,30.2,2.8,63.7,27.1,88c19.3,19.3,44.5,29.1,69.2,29.1
		c4.1,0,8.1-0.3,12.1-0.8c-0.9,5.8-1.3,11.7-1.1,17.7c0.8,24.7,11.1,48.2,29,66c17.9,17.9,41.3,28.2,66,29c1.1,0,2.2,0.1,3.2,0.1
		c4.8,0,9.6-0.4,14.2-1.1c-0.7,5.1-1,10.3-0.8,15.5c0.8,24.7,11.1,48.2,29,66c17.9,17.9,41.3,28.2,66,29c1.1,0,2.2,0.1,3.2,0.1
		c4.5,0,9-0.3,13.4-1c-4.1,28.7,5.3,59.6,28.1,82.4c19.3,19.3,44.5,29.1,69.2,29.1c23,0,45.5-8.4,62.6-25.5l43.4-43.4
		c19.3-19.3,28.5-44.7,27.9-70c1.9,0.1,3.7,0.2,5.6,0.2c25.2,0,50.3-10.2,69.2-29.1c17.9-17.9,28.2-41.3,29-66
		c0.2-5.8-0.1-11.5-1-17.1c5.2,0.7,10.5,1,15.9,0.8c24.7-0.8,48.2-11.1,66-29c17.9-17.9,28.2-41.3,29-66c0.2-6.2-0.2-12.2-1.1-18.1
		c3.8,0.5,7.6,0.7,11.5,0.7c24.7,0,49.9-9.8,69.2-29.1c26.5-26.5,35-64,25-96.2c1.6-0.8,3.1-1.8,4.4-3.2l21.2-21.9
		c129.2-129.2,129.2-339.3,0-468.5C979.5,44.3,769.3,44.3,640,173.6z M254.7,769c-11.6-11.6-18.2-26.6-18.8-42.5
		c-0.5-15.4,4.9-29.5,15.2-39.8l43.4-43.4c11.8-11.8,27.4-17.8,42.9-17.8s31.1,5.9,42.9,17.8c23.7,23.7,23.7,62.2,0,85.9L337,772.6
		C315.3,794.3,278.4,792.6,254.7,769z M446.2,884.6c-10.3,10.3-24.4,15.7-39.8,15.2c-15.8-0.5-30.9-7.2-42.5-18.8
		c-11.6-11.6-18.2-26.6-18.8-42.5c-0.5-15.4,4.9-29.5,15.2-39.8l43.4-43.4c11.5-11.5,26.7-17.8,42.9-17.8c16.2,0,31.5,6.3,42.9,17.8
		c23.7,23.7,23.7,62.2,0,85.9l-42.3,42.3L446.2,884.6z M557.9,994.1c-10.3,10.3-24.4,15.7-39.8,15.2c-15.8-0.5-30.9-7.2-42.5-18.8
		c-11.6-11.6-18.2-26.6-18.8-42.5c-0.5-15.4,4.9-29.5,15.2-39.8l42.3-42.3l1.1-1.1c11.8-11.8,27.4-17.8,42.9-17.8
		c15.5,0,31.1,5.9,42.9,17.8c23.7,23.7,23.7,62.2,0,85.9l-43.3,43.3L557.9,994.1z M752.5,814.5l-98.6,98.6c0.9-15.6-2-31.3-8.7-45.7
		l80.2-80.2L752.5,814.5z M712.1,1061.1l-43.4,43.4c-21.7,21.7-58.6,20.1-82.3-3.6c-23.7-23.7-25.3-60.6-3.6-82.3l43.3-43.3l0.1-0.1
		c11.8-11.8,27.4-17.8,42.9-17.8s31.1,5.9,42.9,17.8C735.8,998.9,735.8,1037.4,712.1,1061.1z M814.8,962.2
		c-15.7,15.7-37.9,22.2-58.2,17.1c-4.6-10.5-11.2-20.2-19.8-28.8c-13-13-28.8-21.4-45.5-25.4l86.1-86.1l40.2,40.2h0l0.7,0.7
		C840.1,901.6,838.5,938.5,814.8,962.2z M1083.7,617.4l-18,18.5c-1.3-1.5-2.7-3-4.1-4.5L899.1,469.2c-6.8-6.8-17.9-6.8-24.7,0
		c-6.8,6.8-6.8,17.9,0,24.7l162.5,162.2c21.7,21.7,20.1,58.6-3.6,82.3c-22.9,22.9-58.1,25.1-80.1,5.6c0,0-0.1-0.1-0.1-0.1
		L808.8,599.6c-0.4-0.4-0.9-0.7-1.3-1.1l-0.8-0.8c-6.8-6.8-17.9-6.8-24.7,0c-6.8,6.8-6.8,17.9,0,24.7l144.3,144.3
		c0.9,0.9,1.9,1.9,2.9,2.8c9.7,10.2,14.8,24,14.3,38.9c-0.5,15.8-7.2,30.9-18.8,42.4c-11.6,11.6-26.6,18.2-42.5,18.8
		c-15.4,0.5-29.5-4.9-39.8-15.2L698.2,710.2c-6.8-6.8-17.9-6.8-24.7,0c-3.4,3.4-5.1,7.9-5.1,12.4c0,4.5,1.7,9,5.1,12.4l27.3,27.3
		l-76.2,76.2c-22.9-21.9-54.2-30.3-83.4-24.9c4.8-29.4-4.1-60.5-26.7-83.1c-18.1-18.1-42.1-28-67.7-28c-5.1,0-10.2,0.4-15.2,1.2
		c5.5-30-3.3-62.1-26.4-85.2c-37.3-37.3-98-37.3-135.4,0l-43.4,43.4c-3,3-5.7,6.1-8.1,9.4l-53.7-55.3
		c-115.5-115.5-115.5-303.5,0-419c0.2-0.2,0.4-0.4,0.6-0.6c115.5-114.9,303-114.7,418.3,0.5l16.5,17.3L525.1,290
		c-35.3,35.3-35.3,92.8,0,128.2c17.1,17.1,39.8,26.5,64.1,26.5c24.3,0,47-9.4,64.2-26.5l73.5-74.5l69.8,70.6
		c3.4,3.5,7.9,5.2,12.4,5.2c4.4,0,8.9-1.7,12.3-5.1c6.9-6.8,6.9-17.9,0.1-24.7L738.9,306c-6.8-6.9-17.9-6.9-24.7-0.1
		c-1,1-1.8,2.1-2.6,3.3c-0.1,0.1-0.1,0.1-0.2,0.2l-82.9,84c-10.4,10.4-24.4,16.2-39.3,16.2c-14.9,0-28.9-5.8-39.3-16.2
		c-10.4-10.4-16.2-24.4-16.2-39.3c0-14.9,5.8-28.9,16.3-39.4l89.4-90.5c0.3-0.3,0.7-0.6,1-0.9l24.6-25
		c115.5-115.5,303.5-115.5,419,0C1199.4,313.8,1199.4,501.7,1083.7,617.4z"/>
</g>
<g id="Name">
</g>
</svg>
