<svg xmlns="http://www.w3.org/2000/svg" viewBox="0 0 30 37.01"><defs><style>.cls-1{fill:#f14742;}.cls-2{fill:#ffd24d;}</style></defs><title>Question</title><g id="Layer_2" data-name="Layer 2"><g id="图层_1" data-name="图层 1"><polygon class="cls-1" points="30 0 0 0 0 37.01 15 27.57 30 37.01 30 0"/><path class="cls-2" d="M24.59,11.75a.63.63,0,0,0-.61-.4l-6.13-.41-2.28-5.7a.58.58,0,0,0-1.14,0l-2.28,5.7L6,11.35a.63.63,0,0,0-.61.4.64.64,0,0,0,.26.68l4.72,3.93L8.88,22.31a.65.65,0,0,0,.19.71.64.64,0,0,0,.73,0L15,19.71,20.2,23a.64.64,0,0,0,.73,0,.67.67,0,0,0,.19-.71l-1.51-5.95,4.72-3.93A.64.64,0,0,0,24.59,11.75Z"/></g></g></svg>