<?xml version="1.0" encoding="UTF-8"?>
<svg width="39px" height="40px" viewBox="0 0 39 40" version="1.1" xmlns="http://www.w3.org/2000/svg" xmlns:xlink="http://www.w3.org/1999/xlink">
    <!-- Generator: Sketch 52.5 (67469) - http://www.bohemiancoding.com/sketch -->
    <title>CreditReport</title>
    <desc>Created with Sketch.</desc>
    <g id="Page-1" stroke="none" stroke-width="1" fill="none" fill-rule="evenodd">
        <g id="Apply-Successful" transform="translate(-62.000000, -482.000000)">
            <g id="Metrial" transform="translate(41.000000, 365.000000)">
                <g id="CreditReport" transform="translate(21.000000, 117.000000)">
                    <path d="M3.5,40 C1.575,40 0,38.4732143 0,36.6071429 L0,21 L7,21 L7,36.6071429 C7,38.4732143 5.425,40 3.5,40 Z" id="Path" fill="#CEC9AE"></path>
                    <rect id="Rectangle" fill="#CEC9AE" x="7" y="0" width="32" height="8"></rect>
                    <path d="M6.53010394,24.1555556 L6.53010394,28.9777778 L6.53010394,36.5555556 C6.53010394,38.45 4.94155717,40 3,40 L6.53010394,40 L10.7662287,40 L35.4769563,40 C37.4227496,40 39,38.4610222 39,36.5624444 L39,9 L6.53010394,9 L6.53010394,24.1555556 Z" id="Path" fill="#EDEADA"></path>
                    <rect id="Rectangle" fill="#F4F3ED" x="7" y="8" width="32" height="1"></rect>
                    <rect id="Rectangle" fill="#61B872" x="11" y="11" width="8" height="8"></rect>
                    <path d="M35.2777778,12 L23.7222222,12 C23.3228333,12 23,11.7765 23,11.5 C23,11.2235 23.3228333,11 23.7222222,11 L35.2777778,11 C35.6771667,11 36,11.2235 36,11.5 C36,11.7765 35.6771667,12 35.2777778,12 Z" id="Path" fill="#CEC9AE"></path>
                    <path d="M35.2777778,16 L23.7222222,16 C23.3228333,16 23,15.7765 23,15.5 C23,15.2235 23.3228333,15 23.7222222,15 L35.2777778,15 C35.6771667,15 36,15.2235 36,15.5 C36,15.7765 35.6771667,16 35.2777778,16 Z" id="Path" fill="#CEC9AE"></path>
                    <path d="M35.2777778,20 L23.7222222,20 C23.3228333,20 23,19.7765 23,19.5 C23,19.2235 23.3228333,19 23.7222222,19 L35.2777778,19 C35.6771667,19 36,19.2235 36,19.5 C36,19.7765 35.6771667,20 35.2777778,20 Z" id="Path" fill="#CEC9AE"></path>
                    <path d="M34.3142857,24 L11.6857143,24 C11.3065143,24 11,23.7765 11,23.5 C11,23.2235 11.3065143,23 11.6857143,23 L34.3142857,23 C34.6934857,23 35,23.2235 35,23.5 C35,23.7765 34.6934857,24 34.3142857,24 Z" id="Path" fill="#CEC9AE"></path>
                    <path d="M22.2941176,28 L11.7058824,28 C11.3155294,28 11,27.7765 11,27.5 C11,27.2235 11.3155294,27 11.7058824,27 L22.2941176,27 C22.6844706,27 23,27.2235 23,27.5 C23,27.7765 22.6844706,28 22.2941176,28 Z" id="Path" fill="#CEC9AE"></path>
                    <path d="M22.2941176,32 L11.7058824,32 C11.3155294,32 11,31.7765 11,31.5 C11,31.2235 11.3155294,31 11.7058824,31 L22.2941176,31 C22.6844706,31 23,31.2235 23,31.5 C23,31.7765 22.6844706,32 22.2941176,32 Z" id="Path" fill="#CEC9AE"></path>
                    <path d="M22.2941176,36 L11.7058824,36 C11.3155294,36 11,35.7765 11,35.5 C11,35.2235 11.3155294,35 11.7058824,35 L22.2941176,35 C22.6844706,35 23,35.2235 23,35.5 C23,35.7765 22.6844706,36 22.2941176,36 Z" id="Path" fill="#CEC9AE"></path>
                    <rect id="Rectangle" fill="#F7B563" x="27" y="28" width="8" height="8"></rect>
                    <rect id="Rectangle" fill="#8E8872" x="15" y="3" width="15" height="3"></rect>
                </g>
            </g>
        </g>
    </g>
</svg>