<?xml version="1.0" encoding="UTF-8"?>
<svg width="45px" height="45px" viewBox="0 0 45 45" version="1.1" xmlns="http://www.w3.org/2000/svg" xmlns:xlink="http://www.w3.org/1999/xlink">
    <!-- Generator: Sketch 52.5 (67469) - http://www.bohemiancoding.com/sketch -->
    <title>MoreInfo</title>
    <desc>Created with Sketch.</desc>
    <g id="Page-1" stroke="none" stroke-width="1" fill="none" fill-rule="evenodd">
        <g id="Apply-Successful" transform="translate(-65.000000, -557.000000)">
            <g id="Metrial" transform="translate(41.000000, 365.000000)">
                <g id="MoreInfo" transform="translate(24.000000, 192.000000)">
                    <path d="M35.9410573,45 L1.21433437,45 C0.415198447,45 -0.165920779,44.2428387 0.0427855918,43.4725161 L7.93017953,21.8949677 C8.07293779,21.3669677 8.5531952,21 9.1017283,21 L43.8284512,21 C44.6275871,21 45,21.7618065 45,22.5274839 L37.1126061,44.1050323 C36.9698478,44.6330323 36.4895904,45 35.9410573,45 Z" id="Path" fill="#EFCE4A"></path>
                    <path d="M38.701,14 L37,14 L37,21 L40,21 L40,15.3471111 C40,14.6027778 39.418,14 38.701,14 Z" id="Path" fill="#EBBA16"></path>
                    <path d="M3,8 L1.299,8 C0.582,8 0,8.60996177 0,9.36316618 L0,42.9921295 C0.05175,42.9937036 0.1035,42.9968518 0.15375,43 L3,34.855633 L3,8 Z" id="Path" fill="#EBBA16"></path>
                    <path d="M8.16865789,21.5372205 C8.30907895,21.0155419 8.78147368,20.6529676 9.32102632,20.6529676 L10.8473421,20.6529676 L37,20.6529676 L37,11.4738709 L37,0 L25.5526316,0 L8,0 L8,22 L8.16865789,21.5372205 Z" id="Path" fill="#F4EFDC"></path>
                    <g id="Group" transform="translate(13.000000, 6.000000)" fill="#CEC9AE">
                        <path d="M0.769230769,6.75 L19.2307692,6.75 C19.6553846,6.75 20,6.41475 20,6 C20,5.58525 19.6553846,5.25 19.2307692,5.25 L0.769230769,5.25 C0.344615385,5.25 0,5.58525 0,6 C0,6.41475 0.344615385,6.75 0.769230769,6.75 Z" id="Path"></path>
                        <path d="M0.769230769,1.5 L8.46153846,1.5 C8.88615385,1.5 9.23076923,1.16475 9.23076923,0.75 C9.23076923,0.33525 8.88615385,0 8.46153846,0 L0.769230769,0 C0.344615385,0 0,0.33525 0,0.75 C0,1.16475 0.344615385,1.5 0.769230769,1.5 Z" id="Path"></path>
                        <path d="M19.2307692,10.5 L0.769230769,10.5 C0.344615385,10.5 0,10.83525 0,11.25 C0,11.66475 0.344615385,12 0.769230769,12 L19.2307692,12 C19.6553846,12 20,11.66475 20,11.25 C20,10.83525 19.6553846,10.5 19.2307692,10.5 Z" id="Path"></path>
                    </g>
                    <polygon id="Path" fill="#CEC9AE" points="8 22.652461 8 2 6 2 6 29"></polygon>
                    <polygon id="Path" fill="#D1BF86" points="5 28.6133557 5 3 3 3 3 35"></polygon>
                </g>
            </g>
        </g>
    </g>
</svg>