<svg height="512pt" viewBox="0 0 512 512" width="512pt" xmlns="http://www.w3.org/2000/svg"><path d="m0 0h512v151h-512zm0 0" fill="#fdbf00"/><path d="m256 0h256v151h-256zm0 0" fill="#ff9100"/><path d="m421 241-30 96.300781-45 30-30-30-30 30-30-15-9.902344-5.101562-20.097656 20.101562-30-30-30 30-45-45v-246.300781h270v80.699219zm0 0" fill="#ececf1"/><path d="m421 241-30 96.300781-45 30-30-30-30 30-30-15v-276.300781h135v80.699219zm0 0" fill="#d3d3d8"/><path d="m68 61h376v30h-376zm0 0" fill="#575f64"/><path d="m256 61h188v30h-188zm0 0" fill="#32393f"/><path d="m448.875 185.671875-57.875-28.941406v174.269531h-60v-120h-60v98.789062c-2.085938 3-16.519531 13.742188-24.980469 37.402344-2.933593 8.210938-5.019531 17.660156-5.019531 28.808594 0 42.054688 27.914062 63.207031 30 66.210938v69.789062h120v-71.003906l91.289062-121.714844zm0 0" fill="#ff9468"/><path d="m181 121h150v30h-150zm0 0" fill="#d3d3d8"/><path d="m256 121h75v30h-75zm0 0" fill="#babac0"/></svg>