<?xml version="1.0" standalone="no"?><!DOCTYPE svg PUBLIC "-//W3C//DTD SVG 1.1//EN" "http://www.w3.org/Graphics/SVG/1.1/DTD/svg11.dtd"><svg t="1499239918355" class="icon" style="" viewBox="0 0 1024 1024" version="1.1" xmlns="http://www.w3.org/2000/svg" p-id="1852" xmlns:xlink="http://www.w3.org/1999/xlink" width="16" height="16"><defs><style type="text/css"></style></defs><path d="M512 70.772034c-243.685892 0-441.227966 197.550776-441.227966 441.227966 0 243.685892 197.542074 441.227966 441.227966 441.227966S953.227966 755.685892 953.227966 512C953.227966 268.32281 755.685892 70.772034 512 70.772034zM713.983275 656.253462c15.919864 15.960476 15.919864 41.780941 0 57.700805-15.948873 15.960476-41.780941 15.960476-57.729813 0L512 569.712408l-144.294074 144.241858c-15.908261 15.960476-41.740329 15.960476-57.692102 0-15.908261-15.919864-15.908261-41.740329 0-57.700805l144.28247-144.241858-144.28247-144.28247c-15.908261-15.919864-15.908261-41.751932 0-57.700805 15.948873-15.919864 41.780941-15.919864 57.692102 0l144.294074 144.28247 144.253462-144.28247c15.948873-15.919864 41.780941-15.919864 57.729813 0 15.919864 15.948873 15.919864 41.780941 0 57.700805l-144.28247 144.28247L713.983275 656.253462z" p-id="1853" fill="#f74048"></path></svg>